<svg width="100" height="100" viewBox="0 0 100 100" xmlns="http://www.w3.org/2000/svg">
  <path d="M78.3,63.3c-6.1-1.3-11.2-5-15-10.1c-2.3,4.4-4.2,9-5.7,13.7c-0.2,0.7-0.9,1.2-1.6,1.2h-0.1 c-0.8,0-1.5-0.6-1.6-1.4c-1.6-5.1-3.8-9.9-6.4-14.4c-3.2,4.8-7.8,8.4-13.2,9.9c-0.8,0.2-1.6-0.2-1.9-1c-0.3-0.8,0-1.6,0.8-1.9 c4.8-1.3,8.9-4.5,11.8-8.5c-3.2-1.8-6-4.3-8.2-7.3c-0.5-0.7-0.4-1.6,0.3-2.1c0.7-0.5,1.6-0.4,2.1,0.3c2.4,3.3,5.5,5.9,9,7.8 c1.2-4,1.9-8.2,1.9-12.5c0-1.8-0.2-3.6-0.5-5.3c-0.2-0.8,0.3-1.6,1.1-1.8c0.8-0.2,1.6,0.3,1.8,1.1c0.3,1.9,0.5,3.8,0.5,5.8 c0,4.7-0.8,9.3-2.2,13.5c3.5-1.7,6.5-4.2,8.8-7.5c0.5-0.7,1.4-0.8,2.1-0.3c0.7,0.5,0.8,1.4,0.3,2.1c-2.3,3.2-5.3,5.8-8.7,7.7 c2.9,4.3,6.8,7.6,11.4,9.1c0.8,0.2,1.3,1,1.1,1.8C79.8,63,79.1,63.3,78.3,63.3z M38.8,38.1c-1.3,0-2.5-0.8-3-2c-1.3-3.2-3.3-6-6-8.2 c-0.6-0.5-0.7-1.4-0.2-2.1c0.5-0.6,1.4-0.7,2.1-0.2c3.1,2.5,5.4,5.7,6.8,9.2c0.3,0.8-0.1,1.7-0.9,2C39.3,38.1,39.1,38.1,38.8,38.1z M61.2,38.1c-0.8,0-1.5-0.5-1.8-1.3c-1.4-3.5-3.7-6.7-6.8-9.2c-0.6-0.5-0.8-1.4-0.2-2.1c0.5-0.6,1.4-0.7,2.1-0.2 c2.7,2.2,4.7,5,6,8.2c0.5,0.8,0.2,1.8-0.6,2.2C61.7,38.1,61.5,38.1,61.2,38.1z" stroke="#c00" stroke-width="4" fill="none" stroke-linecap="round" stroke-linejoin="round"/>
</svg>