<svg width="400" height="100" viewBox="0 0 400 100" xmlns="http://www.w3.org/2000/svg">
  <defs>
    <style>
      .cls-1 { font-family: 'Georgia', 'Times New Roman', serif; font-size: 32px; font-weight: 300; fill: #555555; }
      .cls-2 { font-family: 'Helvetica', 'Arial', sans-serif; font-size: 14px; letter-spacing: 0.1em; text-transform: uppercase; fill: #777777; }
      .bull-red { fill: #c00; }
    </style>
  </defs>
  
  <text x="10" y="45" class="cls-1">CAPITAL &amp; WEALTH</text>
  <rect x="10" y="55" width="260" height="2" style="fill:#cccccc;"/>
  <text x="10" y="78" class="cls-2">Asset Management</text>
  
  <g transform="translate(300, 5) scale(0.9)">
    <path class="bull-red" d="M68.4,5.6c-4.4,0-8.5,1.7-11.6,4.8c-0.2-2.1-0.5-4.1-0.8-6.2c-0.1-0.6-0.6-1-1.2-1s-1.1,0.4-1.2,1c-0.4,2.9-0.8,5.8-1.2,8.7c-0.1,0.6,0.4,1.2,1,1.2c0.1,0,0.2,0,0.3-0.1c3.1-1.3,6.5-2,10-2c3.5,0,6.9,0.7,10,2c0.6,0.3,1.3,0,1.5-0.6c0.3-0.6,0-1.3-0.6-1.5C75.2,7.3,71.8,5.6,68.4,5.6z M26.4,28.2c-0.2,0-0.4-0.1-0.6-0.2c-4.9-3.2-8.6-7.8-10.6-13.2c-0.3-0.7,0-1.5,0.7-1.8c0.7-0.3,1.5,0,1.8,0.7c1.8,4.8,5,8.9,9.4,11.8c0.6,0.4,0.8,1.2,0.4,1.8C27.3,27.8,26.8,28.2,26.4,28.2z M90.4,13.2c-2-5.4-5.7-10-10.6-13.2c-0.6-0.4-1.4-0.2-1.8,0.4s-0.2,1.4,0.4,1.8c4.4,2.9,7.6,7,9.4,11.8c0.3,0.7,1.1,1,1.8,0.7C90.4,14.7,90.7,13.9,90.4,13.2z M58.4,94.4c-0.6,0-1-0.4-1-1V72.2c0-0.6,0.4-1,1-1s1,0.4,1,1v21.2C59.4,94,59,94.4,58.4,94.4z M89.4,90.4c-0.3,0-0.5-0.1-0.7-0.3l-10-10c-0.4-0.4-0.4-1,0-1.4s1-0.4,1.4,0l10,10c0.4,0.4,0.4,1,0,1.4C89.9,90.3,89.7,90.4,89.4,90.4z M28.4,90.4c-0.3,0-0.5-0.1-0.7-0.3c-0.4-0.4-0.4-1,0-1.4l10-10c0.4-0.4,1-0.4,1.4,0s0.4,1,0,1.4l-10,10C28.9,90.3,28.7,90.4,28.4,90.4z M103.4,62.2H13.4c-0.6,0-1-0.4-1-1v-23c0-13.3,10.7-24,24-24h56c13.3,0,24,10.7,24,24v23C104.4,61.8,104,62.2,103.4,62.2z M14.4,60.2h88V38.2c0-12.2-9.8-22-22-22h-56c-12.2,0-22,9.8-22,22V60.2z"/>
  </g>
</svg>